<svg width="452" height="96" viewBox="0 0 452 96" fill="none" xmlns="http://www.w3.org/2000/svg">
<path d="M10.32 67.384C7.344 67.384 5.12 66.344 3.648 64.264C2.208 62.152 1.488 58.968 1.488 54.712V36.952C1.488 33.144 2.336 30.264 4.032 28.312C5.728 26.36 8.256 25.384 11.616 25.384C14.336 25.384 16.448 25.928 17.952 27.016C19.456 28.104 20.496 29.688 21.072 31.768C21.648 33.848 21.936 36.52 21.936 39.784H13.872V36.088C13.872 35.096 13.728 34.328 13.44 33.784C13.184 33.24 12.704 32.968 12 32.968C10.432 32.968 9.648 33.992 9.648 36.04V56.008C9.648 57.256 9.808 58.2 10.128 58.84C10.448 59.48 11.008 59.8 11.808 59.8C12.608 59.8 13.168 59.48 13.488 58.84C13.808 58.2 13.968 57.256 13.968 56.008V50.104H11.76V43H21.84V67H18.528L17.136 63.544C15.664 66.104 13.392 67.384 10.32 67.384ZM27.5209 25.768H40.1929C42.2089 25.768 43.7609 26.232 44.8489 27.16C45.9689 28.056 46.7209 29.336 47.1049 31C47.4889 32.632 47.6809 34.728 47.6809 37.288C47.6809 39.624 47.3769 41.448 46.7689 42.76C46.1609 44.072 45.1049 44.984 43.6009 45.496C44.8489 45.752 45.7449 46.376 46.2889 47.368C46.8649 48.36 47.1529 49.704 47.1529 51.4L47.0569 67H38.9929V50.872C38.9929 49.72 38.7689 48.984 38.3209 48.664C37.8729 48.344 37.0569 48.184 35.8729 48.184V67H27.5209V25.768ZM37.8889 41.032C39.0409 41.032 39.6169 39.784 39.6169 37.288C39.6169 36.2 39.5689 35.384 39.4729 34.84C39.3769 34.296 39.2009 33.928 38.9449 33.736C38.6889 33.512 38.3209 33.4 37.8409 33.4H35.9209V41.032H37.8889ZM51.6919 67L55.6759 25.768H69.6439L73.5799 67H65.7559L65.1799 60.328H60.1879L59.7079 67H51.6919ZM60.8119 53.752H64.5559L62.7319 32.776H62.3479L60.8119 53.752ZM78.4927 25.768H89.6767C92.6847 25.768 94.8607 26.504 96.2047 27.976C97.5807 29.448 98.2687 31.848 98.2687 35.176V37C98.2687 40.936 96.8607 43.288 94.0447 44.056C95.7727 44.504 96.9887 45.544 97.6927 47.176C98.3967 48.808 98.7487 50.968 98.7487 53.656C98.7487 58.04 98.0927 61.368 96.7807 63.64C95.4687 65.88 93.1007 67 89.6767 67H78.4927V25.768ZM88.2367 41.272C88.9407 41.272 89.4207 41.016 89.6767 40.504C89.9327 39.96 90.0607 39.208 90.0607 38.248V34.12C90.0607 32.776 89.4687 32.104 88.2847 32.104H86.5567V41.272H88.2367ZM87.3727 59.752C89.5167 59.752 90.5887 58.728 90.5887 56.68V51.544C90.5887 50.296 90.3967 49.352 90.0127 48.712C89.6607 48.072 89.0207 47.752 88.0927 47.752H86.5567V59.704L87.3727 59.752ZM113.653 67.384C109.909 67.384 107.205 66.456 105.541 64.6C103.877 62.744 103.045 59.752 103.045 55.624V51.592H111.157V56.728C111.157 58.776 111.813 59.8 113.125 59.8C113.861 59.8 114.373 59.592 114.661 59.176C114.949 58.728 115.093 57.992 115.093 56.968C115.093 55.624 114.933 54.52 114.613 53.656C114.293 52.76 113.877 52.024 113.365 51.448C112.885 50.84 112.005 49.912 110.725 48.664L107.173 45.112C104.421 42.424 103.045 39.448 103.045 36.184C103.045 32.664 103.845 29.992 105.445 28.168C107.077 26.312 109.445 25.384 112.549 25.384C116.261 25.384 118.933 26.376 120.565 28.36C122.197 30.312 123.013 33.384 123.013 37.576H114.613L114.565 34.744C114.565 34.2 114.405 33.768 114.085 33.448C113.797 33.128 113.381 32.968 112.837 32.968C112.197 32.968 111.717 33.144 111.397 33.496C111.077 33.848 110.917 34.328 110.917 34.936C110.917 36.28 111.685 37.672 113.221 39.112L118.021 43.72C119.141 44.808 120.069 45.848 120.806 46.84C121.542 47.8 122.134 48.952 122.582 50.296C123.03 51.608 123.253 53.176 123.253 55C123.253 59.064 122.501 62.152 120.997 64.264C119.525 66.344 117.077 67.384 113.653 67.384ZM153.755 67V25.768H170.267V33.736H162.155V41.752H169.931V49.528H162.155V58.984H170.795V67H153.755ZM175.937 67V25.768H192.449V33.736H184.337V41.752H192.113V49.528H184.337V58.984H192.977V67H175.937Z" fill="white"/>
<path d="M128.387 25.768H139.571C142.579 25.768 144.755 26.504 146.099 27.976C147.475 29.448 148.163 31.848 148.163 35.176V37C148.163 40.936 146.755 43.288 143.939 44.056C145.667 44.504 146.883 45.544 147.587 47.176C148.291 48.808 148.643 50.968 148.643 53.656C148.643 58.04 147.987 61.368 146.675 63.64C145.363 65.88 142.995 67 139.571 67H128.387V25.768ZM138.131 41.272C138.835 41.272 139.315 41.016 139.571 40.504C139.827 39.96 139.955 39.208 139.955 38.248V34.12C139.955 32.776 139.363 32.104 138.179 32.104H136.451V41.272H138.131ZM137.267 59.752C139.411 59.752 140.483 58.728 140.483 56.68V51.544C140.483 50.296 140.291 49.352 139.907 48.712C139.555 48.072 138.915 47.752 137.987 47.752H136.451V59.704L137.267 59.752Z" fill="#EC1D2E"/>
</svg>
